# xmcd
#
# Track frame offsets: 
#        150
#        4127
#        19477
#        40154
#        57342
#
# Disc length: 1054 seconds
#
# Revision: 0
# Processed by: cddbd v1.5.2PL0 Copyright (c) Steve Scherf et al.
# Submitted via: ExactAudioCopyFreeDBPlugin 1.0
#
DISCID=3a041c05
DTITLE=RIO THE VOICE OF ELVIS - Night Train
DYEAR=2016
DGENRE=Rock and Roll
TTITLE0=Interlude
TTITLE1=Longing For My Baby
TTITLE2=Night Train
TTITLE3=Crazy Dreams
TTITLE4=Stormy
EXTD=
EXTT0=
EXTT1=
EXTT2=
EXTT3=
EXTT4=
PLAYORDER=
